{
  "source": "C:\\Users\\Peter\\Desktop\\stuff\\MIUN\\quantitative_research\\video_compression\\videos\\BVI-HD\\BVI-HD_CDVL_videos\\ORIG\\Surfers_1920x1080_30fps.mp4",
  "output": "C:\\Users\\Peter\\Desktop\\stuff\\MIUN\\quantitative_research\\video_compression\\compressed_videos\\BVI-HD\\av1\\2\\Surfers_1920x1080_30fps_av1.mkv",
  "codec": "av1",
  "ok": "Input #0, mov,mp4,m4a,3gp,3g2,mj2, from 'C:\\Users\\Peter\\Desktop\\stuff\\MIUN\\quantitative_research\\video_compression\\videos\\BVI-HD\\BVI-HD_CDVL_videos\\ORIG\\Surfers_1920x1080_30fps.mp4':\n  Metadata:\n    major_brand     : isom\n    minor_version   : 512\n    compatible_brands: isomiso2avc1mp41\n    encoder         : Lavf54.28.101\n  Duration: 00:00:05.00, start: 0.000000, bitrate: 232762 kb/s\n  Stream #0:0[0x1](und): Video: h264 (High 4:4:4 Predictive) (avc1 / 0x31637661), yuv420p(progressive), 1920x1080, 232759 kb/s, 30 fps, 30 tbr, 30 tbn (default)\n    Metadata:\n      handler_name    : VideoHandler\n      vendor_id       : [0][0][0][0]\n[out#0/matroska @ 000001dc88701200] Codec AVOption b:a (set bitrate (in bits/s)) has not been used for any stream. The most likely reason is either wrong type (e.g. a video option with no video streams) or that it is a private option of some decoder which was not actually used for any stream.\nStream mapping:\n  Stream #0:0 -> #0:0 (h264 (native) -> av1 (libsvtav1))\nPress [q] to stop, [?] for help\nSvt[info]: -------------------------------------------\nSvt[info]: SVT [version]:\tSVT-AV1 Encoder Lib v3.1.0-19-g6ecfe8ec\nSvt[info]: SVT [build]  :\tGCC 15.2.0\t 64 bit\nSvt[info]: LIB Build date: Aug 17 2025 11:37:13\nSvt[info]: -------------------------------------------\nSvt[info]: Level of Parallelism: 5\nSvt[info]: Number of PPCS 93\nSvt[info]: [asm level on system : up to avx2]\nSvt[info]: [asm level selected : up to avx2]\nSvt[info]: -------------------------------------------\nSvt[info]: SVT [config]: main profile\ttier (auto)\tlevel (auto)\nSvt[info]: SVT [config]: width / height / fps numerator / fps denominator \t\t: 1920 / 1080 / 30 / 1\nSvt[info]: SVT [config]: bit-depth / color format \t\t\t\t\t: 8 / YUV420\nSvt[info]: SVT [config]: preset / tune / pred struct \t\t\t\t\t: 4 / PSNR / random access\nSvt[info]: SVT [config]: gop size / mini-gop size / key-frame type \t\t\t: 161 / 16 / key frame\nSvt[info]: SVT [config]: BRC mode / target bitrate (kbps)\t\t\t\t: VBR / 2000 \nSvt[info]: SVT [config]: AQ mode / Variance Boost \t\t\t\t\t: 2 / 0\nSvt[info]: SVT [config]: sharpness / luminance-based QP bias \t\t\t\t: 0 / 0\nSvt[info]: SVT [config]: QP scale compress strength \t\t\t\t\t: 0\nSvt[info]: -------------------------------------------\nOutput #0, matroska, to 'C:\\Users\\Peter\\Desktop\\stuff\\MIUN\\quantitative_research\\video_compression\\compressed_videos\\BVI-HD\\av1\\2\\Surfers_1920x1080_30fps_av1.mkv':\n  Metadata:\n    major_brand     : isom\n    minor_version   : 512\n    compatible_brands: isomiso2avc1mp41\n    encoder         : Lavf62.3.100\n  Stream #0:0(und): Video: av1 (AV01 / 0x31305641), yuv420p(tv, progressive), 1920x1080, q=2-31, 2000 kb/s, 30 fps, 1k tbn (default)\n    Metadata:\n      encoder         : Lavc62.11.100 libsvtav1\n      handler_name    : VideoHandler\n      vendor_id       : [0][0][0][0]\n    Side data:\n      cpb: bitrate max/min/avg: 0/0/2000000 buffer size: 2000000 vbv_delay: N/A\nframe=    0 fps=0.0 q=0.0 size=       0KiB time=N/A bitrate=N/A speed=N/A elapsed=0:00:01.02    \nframe=    0 fps=0.0 q=0.0 size=       0KiB time=N/A bitrate=N/A speed=N/A elapsed=0:00:01.58    \nframe=    0 fps=0.0 q=0.0 size=       0KiB time=N/A bitrate=N/A speed=N/A elapsed=0:00:02.11    \nframe=    0 fps=0.0 q=0.0 size=       0KiB time=N/A bitrate=N/A speed=N/A elapsed=0:00:02.65    \nframe=    1 fps=0.3 q=26.0 size=       1KiB time=00:00:00.00 bitrate=N/A speed=   0x elapsed=0:00:03.15    \nframe=    1 fps=0.3 q=26.0 size=       1KiB time=00:00:00.00 bitrate=N/A speed=   0x elapsed=0:00:03.68    \nframe=    4 fps=1.0 q=45.0 size=       1KiB time=00:00:00.06 bitrate=  85.6kbits/s speed=0.0159x elapsed=0:00:04.19    \nframe=    7 fps=1.5 q=41.0 size=       1KiB time=00:00:00.20 bitrate=  28.5kbits/s speed=0.0422x elapsed=0:00:04.73    \nframe=    9 fps=1.7 q=38.0 size=       1KiB time=00:00:00.26 bitrate=  21.4kbits/s speed=0.0507x elapsed=0:00:05.26    \nframe=   13 fps=2.2 q=39.0 size=       1KiB time=00:00:00.40 bitrate=  14.3kbits/s speed=0.0691x elapsed=0:00:05.79    \nframe=   17 fps=2.7 q=31.0 size=       1KiB time=00:00:00.53 bitrate=  10.7kbits/s speed=0.0846x elapsed=0:00:06.30    \nframe=   20 fps=2.9 q=42.0 size=       1KiB time=00:00:00.63 bitrate=   9.0kbits/s speed=0.0928x elapsed=0:00:06.82    \nframe=   23 fps=3.1 q=41.0 size=       1KiB time=00:00:00.73 bitrate=   7.8kbits/s speed=0.0997x elapsed=0:00:07.35    \nframe=   26 fps=3.3 q=43.0 size=       1KiB time=00:00:00.83 bitrate=   6.8kbits/s speed=0.105x elapsed=0:00:07.90    \nframe=   30 fps=3.6 q=43.0 size=       1KiB time=00:00:00.96 bitrate=   5.9kbits/s speed=0.115x elapsed=0:00:08.42    \nframe=   35 fps=3.9 q=42.0 size=       1KiB time=00:00:01.13 bitrate=   5.0kbits/s speed=0.127x elapsed=0:00:08.95    \nframe=   37 fps=3.9 q=39.0 size=       1KiB time=00:00:01.20 bitrate=   4.8kbits/s speed=0.127x elapsed=0:00:09.47    \nframe=   39 fps=3.9 q=42.0 size=       1KiB time=00:00:01.26 bitrate=   4.5kbits/s speed=0.127x elapsed=0:00:10.00    \nframe=   43 fps=4.1 q=42.0 size=       1KiB time=00:00:01.40 bitrate=   4.1kbits/s speed=0.132x elapsed=0:00:10.59    \nframe=   48 fps=4.3 q=42.0 size=       1KiB time=00:00:01.56 bitrate=   3.6kbits/s speed=0.141x elapsed=0:00:11.12    \nframe=   51 fps=4.4 q=44.0 size=       1KiB time=00:00:01.66 bitrate=   3.4kbits/s speed=0.143x elapsed=0:00:11.64    \nframe=   57 fps=4.7 q=38.0 size=       1KiB time=00:00:01.86 bitrate=   3.1kbits/s speed=0.153x elapsed=0:00:12.16    \nframe=   57 fps=4.5 q=38.0 size=       1KiB time=00:00:01.86 bitrate=   3.1kbits/s speed=0.147x elapsed=0:00:12.68    \nframe=   61 fps=4.6 q=40.0 size=       1KiB time=00:00:02.00 bitrate=   2.9kbits/s speed=0.152x elapsed=0:00:13.20    \nframe=   65 fps=4.7 q=31.0 size=       1KiB time=00:00:02.13 bitrate=   2.7kbits/s speed=0.155x elapsed=0:00:13.71    \nframe=   71 fps=5.0 q=46.0 size=       1KiB time=00:00:02.33 bitrate=   2.4kbits/s speed=0.164x elapsed=0:00:14.25    \nframe=   73 fps=4.9 q=40.0 size=       1KiB time=00:00:02.40 bitrate=   2.4kbits/s speed=0.162x elapsed=0:00:14.77    \nframe=   79 fps=5.2 q=45.0 size=       1KiB time=00:00:02.53 bitrate=   2.3kbits/s speed=0.166x elapsed=0:00:15.28    \nframe=   85 fps=5.4 q=45.0 size=       1KiB time=00:00:02.80 bitrate=   2.0kbits/s speed=0.177x elapsed=0:00:15.85    \nframe=   89 fps=5.4 q=41.0 size=       1KiB time=00:00:02.93 bitrate=   1.9kbits/s speed=0.179x elapsed=0:00:16.36    \nframe=   89 fps=5.3 q=41.0 size=       1KiB time=00:00:02.93 bitrate=   1.9kbits/s speed=0.174x elapsed=0:00:16.89    \nframe=   93 fps=5.3 q=42.0 size=       1KiB time=00:00:03.06 bitrate=   1.9kbits/s speed=0.176x elapsed=0:00:17.40    \nframe=   99 fps=5.5 q=47.0 size=       1KiB time=00:00:03.26 bitrate=   1.7kbits/s speed=0.182x elapsed=0:00:17.93    \nframe=  103 fps=5.6 q=47.0 size=       1KiB time=00:00:03.40 bitrate=   1.7kbits/s speed=0.184x elapsed=0:00:18.44    \nframe=  105 fps=5.5 q=41.0 size=       1KiB time=00:00:03.46 bitrate=   1.6kbits/s speed=0.183x elapsed=0:00:18.95    \nframe=  109 fps=5.6 q=43.0 size=       1KiB time=00:00:03.60 bitrate=   1.6kbits/s speed=0.185x elapsed=0:00:19.47    \nframe=  113 fps=5.7 q=34.0 size=       1KiB time=00:00:03.73 bitrate=   1.5kbits/s speed=0.187x elapsed=0:00:19.98    \nframe=  117 fps=5.7 q=42.0 size=       1KiB time=00:00:03.86 bitrate=   1.5kbits/s speed=0.189x elapsed=0:00:20.50    \nframe=  121 fps=5.8 q=43.0 size=       1KiB time=00:00:04.00 bitrate=   1.4kbits/s speed=0.19x elapsed=0:00:21.01    \nframe=  125 fps=5.8 q=44.0 size=       1KiB time=00:00:04.13 bitrate=   1.4kbits/s speed=0.192x elapsed=0:00:21.55    \nframe=  129 fps=5.8 q=36.0 size=       1KiB time=00:00:04.26 bitrate=   1.3kbits/s speed=0.193x elapsed=0:00:22.11    \nframe=  133 fps=5.9 q=48.0 size=       1KiB time=00:00:04.40 bitrate=   1.3kbits/s speed=0.195x elapsed=0:00:22.61    \nframe=  137 fps=5.9 q=44.0 size=       1KiB time=00:00:04.53 bitrate=   1.3kbits/s speed=0.196x elapsed=0:00:23.14    \nframe=  139 fps=5.9 q=48.0 size=       1KiB time=00:00:04.60 bitrate=   1.2kbits/s speed=0.194x elapsed=0:00:23.65    \n[out#0/matroska @ 000001dc88701200] video:1343KiB audio:0KiB subtitle:0KiB other streams:0KiB global headers:0KiB muxing overhead: 0.105677%\nframe=  150 fps=6.2 q=48.0 Lsize=    1344KiB time=00:00:04.96 bitrate=2217.0kbits/s speed=0.206x elapsed=0:00:24.07    \n",
  "seconds": 24.511964559555054,
  "probe_out": {}
}